<svg xmlns="http://www.w3.org/2000/svg" viewBox="0 0 616 367">
<defs><linearGradient id="g" x1="0" y1="1" x2="1" y2="0"><stop offset="0%" stop-color="#C99000"/><stop offset="50%" stop-color="#FFD95A"/><stop offset="100%" stop-color="#FFF3A0"/></linearGradient></defs>
<polygon points="385,226 381,224 375,225 355,254 328,304 307,358 324,358 344,307 385,230" fill="url(#g)"/>
<polygon points="357,192 333,219 299,268 272,314 251,358 269,358 287,319 308,281 359,203" fill="url(#g)"/>
<polygon points="557,35 554,35 489,89 439,141 421,163 420,167 424,170 431,165 475,112" fill="url(#g)"/>
<polygon points="549,28 545,28 509,52 463,87 400,143 389,158 395,159 415,138 465,92" fill="url(#g)"/>
<polygon points="540,21 533,23 489,48 434,84 387,119 345,156 318,183 264,247 225,304 199,352 215,353 251,290 304,217 307,210 356,156 415,105 457,73" fill="url(#g)"/>
<polygon points="531,14 489,33 409,78 358,111 306,151 250,203 217,239 172,298 145,343 162,344 192,296 229,247 283,185 325,147 370,111 419,77" fill="url(#g)"/>
<polygon points="522,7 472,27 393,65 332,99 279,134 241,164 183,218 128,281 91,334 108,337 152,277 196,225 245,175 290,139 341,103 394,71 448,42" fill="url(#g)"/>
</svg>